<svg id="Layer_1" data-name="Layer 1" xmlns="http://www.w3.org/2000/svg" viewBox="0 0 679.78217 555.87129">
  <title>goku-face-002</title>
  <path d="M661.27527,543.36255c-22.96491-6.09815-45.92981-12.19635-70.71979-18.77924C641.533,495.988,690.76648,468.371,740,440.754q-.318-.77866-.63593-1.55725c-34.08172-2.05927-68.16345-4.11853-104.16387-6.29376,21.08642-18.99341,40.64044-36.60657,61.47772-55.37555-47.168,3.61285-92.14771,7.05816-137.3653,10.5216-14.25866-43.4-45.77917-66.89935-87.51452-78.106A257.2535,257.2535,0,0,0,452.56,204.90668c-9.53815-23.42682-23.57843-42.78827-47.44245-53.25141-11.686-5.12371-23.46484-10.26477-35.62683-14.02105-18.86236-5.82575-38.08825-10.47412-58.50366-15.98426,16.60693,51.26892,31.07587,101.22272,23.56152,155.70209-3.78637-2.17273-5.43743-6.02508-8.2196-8.70184-24.36047-23.43817-51.17261-43.34809-83.032-55.559-15.78675-6.05066-31.7732-9.82434-48.98786-5.45526-48.599,12.33441-91.53235,36.42529-134.09125,63.01391,1.24219,1.4325,1.52222,1.97577,1.96753,2.2334q4.42639,2.56119,8.91382,5.0166c41.83362,22.9942,80.87451,49.77777,113.233,85.26483,16.3133,17.89045,30.03882,37.59833,37.91352,61.29657-53.86383,9.65918-100.73938,34.59729-149.51685,61.59089,55.10468,12.14044,107.70618,23.66107,156.85382,50.80963-22.12726,12.76464-42.86688,24.72882-65.1958,37.6098,8.673.89709,15.35175,1.59711,22.03253,2.27746,31.94208,3.25275,63.96479,5.9,95.7743,10.14545,8.618,1.15009,17.20605,6.05353,20.42938,16.36762a30.27984,30.27984,0,0,0,7.27337,12.26434c15.4278,15.05261,30.98883,29.99945,47.08857,44.32513,20.59539,18.326,45.63025,21.77576,70.27368,13.21613,14.94671-5.19165,28.544-16.3587,40.60333-27.22168,13.76074-12.39545,25.04834-27.51935,37.66394-41.22443a11.34059,11.34059,0,0,1,7.19922-3.0036c17.60522-.84283,35.22455-1.41644,52.84387-1.92517,7.12238-.20569,14.25574-.03393,21.3841-.03393q.041-1.18589.082-2.37177c-12.01264-5.88293-24.02533-11.76593-37.76435-18.49445,38.66614-11.5592,75.38471-22.53619,112.10334-33.51312ZM507.57544,457.3512c1.00885,3.52325,3.3811,7.29583,2.79034,10.52655C507.819,481.8053,504.443,495.583,501.27557,509.3938c-.44494,1.94006-1.022,3.86175-1.75476,6.25421l-4.71759-7.55-34.73871,19.41443A456.336,456.336,0,0,0,507.57544,457.3512Zm-151.52667-6.93885v82.75208l-32.76966-18.314C323.42358,473.44757,330.44855,460.56793,356.04877,450.41235Zm175.025,106.37635c-5.63013,8.46392-12.56256,16.0625-18.93512,24.03-.52728.65931-1.19427,1.64307-1.85644,1.69391-12.7743.98066-12.07251,12.3183-16.053,20.26233a38.39475,38.39475,0,0,1-8.8609,11.32355c-17.4524,15.31891-33.942,32.212-53.19361,44.86389-17.72723,11.65015-38.91992,10.61762-57.54858-.29925-22.25159-13.04-40.62439-31.10993-57.04443-50.82392-4.82984-5.7987-6.59266-14.15191-10.16663-22.25372-25.09448-7.29846-47.68994-47.01025-29.00427-81.20337,7.31231,8.12054,14.449,16.046,23.485,26.08075-.71563-9.47308-1.24481-16.47754-1.94348-25.72607,3.00434,2.65509,5.83655,5.15808,8.59723,7.59771l-6.08533,9.739L391.53571,564l-1.74646-11.979-30.15662-16.85364c25.35455-38.66815,53.35382-74.88556,94.41644-101.76343,7.20893,34.95148-.07855,67.34473-4.70007,100.09711l-33.13825,18.52L414.46429,564l89.07142-41.92651-1.95331-3.126c5.51806-3.489,10.327-6.52942,16.50635-10.43652-3.76172,8.77825-6.66852,15.56164-9.57538,22.345q.55536.58831,1.11078,1.17645c7.97576-5.36933,15.95159-10.73859,25.73938-17.32776C535.53345,530.158,539.471,544.16486,531.07379,556.7887Z" transform="translate(-60.21783 -121.64996)"/>
</svg>
