<svg width="648" height="675" viewBox="0 0 648 675" fill="none" xmlns="http://www.w3.org/2000/svg">
<path d="M326 0L455.904 225L196.096 225L326 0Z" fill="#8DA2BB"/>
<path d="M518 338L647.904 563L388.096 563L518 338Z" fill="#8DA2BB"/>
<path d="M130 338L259.904 563L0.0961914 563L130 338Z" fill="#8DA2BB"/>
<path d="M582.076 226L324 673L65.9244 226L582.076 226Z" fill="#323D4A" stroke="white" stroke-width="2"/>
<path d="M237.1 292C237.1 280.1 235.467 271.35 232.2 265.75C228.933 259.917 222.4 257 212.6 257H205.6V250H297.3C342.567 250 376.75 260.033 399.85 280.1C423.183 300.167 434.85 328.167 434.85 364.1C434.85 387.2 429.95 407.617 420.15 425.35C410.35 442.85 395.767 456.5 376.4 466.3C357.267 476.1 333.933 481 306.4 481H237.1V292ZM305.35 468.75C322.617 468.75 338.133 464.55 351.9 456.15C365.9 447.517 376.867 435.5 384.8 420.1C392.733 404.467 396.7 386.267 396.7 365.5C396.7 345.2 392.733 327.233 384.8 311.6C377.1 295.967 366.25 283.833 352.25 275.2C338.25 266.567 322.383 262.25 304.65 262.25C293.45 262.25 281.783 264.117 269.65 267.85V464.2C282.717 467.233 294.617 468.75 305.35 468.75Z" fill="white"/>
</svg>
