<svg width="395" height="332" viewBox="0 0 395 332" fill="none" xmlns="http://www.w3.org/2000/svg">
<g clip-path="url(#clip0)">
<path d="M143.459 256.678C143.459 256.678 128.276 264.438 154.013 266.658C184.996 269.978 201.499 269.428 235.79 263.888C242.682 267.436 249.971 270.407 257.552 272.759C180.404 300.481 82.7648 271.099 143.447 256.678H143.459ZM133.584 220.645C133.584 220.645 117.093 231.176 142.817 233.406C176.454 236.177 202.832 236.726 248.356 228.976C252.784 232.75 258.204 235.597 264.181 237.287C171.183 260.568 66.9771 239.507 133.584 220.656V220.645ZM315.617 283.829C315.617 283.829 326.825 291.589 303.088 297.69C258.898 308.791 117.759 312.111 78.1853 297.69C64.3356 292.71 90.7142 285.499 99.1696 284.389C107.749 282.729 112.377 282.729 112.377 282.729C97.1946 273.859 11.4673 301.02 68.8534 308.77C226.483 330.392 356.413 299.35 315.519 283.829H315.617ZM150.594 182.942C150.594 182.942 78.7037 197.364 124.869 202.344C144.656 204.564 183.564 204.004 219.842 201.794C249.517 199.574 279.216 195.154 279.216 195.154C279.216 195.154 268.662 199.034 261.404 202.914C188.205 218.996 47.7085 211.785 87.9492 195.154C122.24 181.293 150.606 182.963 150.606 182.963L150.594 182.942ZM279.216 243.366C353.081 211.204 318.79 180.183 295.04 184.053C289.115 185.163 286.461 186.273 286.461 186.273C286.461 186.273 288.436 182.953 293.053 181.843C339.885 167.982 376.818 223.415 277.87 245.026C277.87 245.026 278.524 244.477 279.191 243.366H279.216ZM157.877 330.952C229.1 334.832 337.935 328.732 340.564 300.45C340.564 300.45 335.293 311.551 281.869 319.851C221.188 329.271 146.002 328.151 101.811 322.071C101.811 322.071 111.044 328.711 157.877 330.942V330.952Z" fill="black"/>
<path d="M234.482 0.010437C234.482 0.010437 275.377 34.9327 195.574 87.5962C131.597 130.279 181.071 154.671 195.574 182.393C157.975 154.121 130.943 129.169 149.409 105.898C176.442 71.5149 250.973 54.9876 234.482 0.010437ZM213.498 159.111C232.63 177.402 208.227 194.033 208.227 194.033C208.227 194.033 257.034 172.972 234.605 146.91C214.164 121.969 198.315 109.768 284.067 68.1949C284.067 68.1949 148.866 96.4668 213.498 159.111V159.111Z" fill="black"/>
</g>
<defs>
<clipPath id="clip0">
<rect width="395" height="332" fill="white"/>
</clipPath>
</defs>
</svg>
