<svg width="2500" height="1874" viewBox="0 0 2500 1874" fill="none" xmlns="http://www.w3.org/2000/svg">
<path d="M2151.37 1076.15C2063.96 1076.64 1988.28 1097.63 1924.8 1128.89C1901.37 1082.5 1877.93 1041.97 1874.03 1011.7C1869.63 976.544 1864.26 955.055 1869.63 913.067C1875 871.07 1899.41 811.5 1899.41 806.617C1898.92 802.223 1894.04 780.738 1843.75 780.25C1793.46 779.762 1750 790.016 1745.12 803.199C1740.23 816.383 1730.47 846.656 1724.12 877.906C1715.33 923.805 1623.54 1086.4 1571.29 1171.85C1554.2 1138.65 1539.55 1109.35 1536.62 1085.91C1532.23 1050.76 1526.85 1029.27 1532.23 987.281C1537.6 945.284 1562.01 885.719 1562.01 880.836C1561.52 876.441 1556.64 854.957 1506.35 854.469C1456.05 853.98 1412.6 864.234 1407.72 877.418C1402.84 890.601 1397.47 921.851 1386.72 952.125C1376.46 982.398 1254.39 1253.88 1222.66 1324.68C1206.54 1360.82 1192.39 1389.62 1182.13 1409.16C1171.88 1428.69 1181.64 1410.62 1180.66 1412.57C1171.88 1429.18 1166.99 1438.45 1166.99 1438.45V1438.95C1160.16 1451.15 1152.83 1462.87 1149.41 1462.87C1146.97 1462.87 1142.08 1430.15 1150.39 1385.24C1168.45 1290.99 1212.4 1144.02 1211.91 1138.65C1211.91 1136.21 1220.21 1110.33 1183.59 1097.15C1147.94 1083.97 1135.25 1105.94 1132.32 1105.94C1129.39 1105.94 1126.95 1113.75 1126.95 1113.75C1126.95 1113.75 1166.5 948.228 1051.26 948.228C978.999 948.228 879.39 1026.84 830.073 1098.62C798.823 1115.71 732.417 1151.84 662.104 1190.42C635.249 1205.06 607.417 1220.69 581.05 1234.85L575.684 1228.98C436.035 1080.05 177.734 974.586 188.477 774.391C192.383 701.637 217.773 509.742 684.575 277.32C1066.9 86.8906 1373.05 139.137 1426.27 255.348C1501.95 421.363 1262.7 729.957 865.239 774.391C713.872 791.48 634.277 732.887 614.263 710.914C593.267 687.965 590.337 686.988 582.524 691.383C569.829 698.219 577.642 718.726 582.524 730.933C594.243 761.695 643.071 816.383 726.079 843.726C798.828 867.652 976.567 880.836 1191.41 797.828C1432.13 704.566 1620.12 445.777 1564.95 229.469C1508.79 9.25388 1143.56 -63.0118 798.345 59.5468C592.773 132.789 370.117 247.047 209.961 396.949C19.5313 574.684 -10.7422 729.957 1.95314 794.41C46.3916 1024.39 363.281 1174.29 490.234 1285.13C483.887 1288.55 478.027 1291.96 472.656 1294.9C409.18 1326.14 167.48 1452.61 106.934 1586.4C38.5742 1737.76 117.676 1846.66 170.41 1861.3C333.496 1906.71 500.488 1825.17 590.82 1690.89C680.659 1556.62 669.922 1382.3 628.418 1302.71L626.948 1299.78L676.753 1270.48C708.984 1251.44 740.723 1233.86 768.55 1218.72C752.93 1261.2 741.694 1311.5 735.84 1384.74C729.004 1470.68 764.16 1582 810.547 1625.95C831.055 1644.99 855.469 1645.48 870.605 1645.48C924.316 1645.48 948.73 1601.04 975.586 1547.82C1008.79 1482.88 1038.09 1407.69 1038.09 1407.69C1038.09 1407.69 1001.46 1611.3 1101.56 1611.3C1138.18 1611.3 1174.8 1563.94 1191.41 1539.52V1540.01C1191.41 1540.01 1192.38 1538.55 1194.34 1535.13C1196.38 1532.1 1198.34 1529.01 1200.2 1525.86V1524.88C1214.84 1499.49 1247.56 1441.38 1296.39 1345.19C1359.37 1221.17 1419.92 1065.89 1419.92 1065.89C1419.92 1065.89 1425.78 1103.98 1443.85 1166.48C1454.59 1203.59 1478.02 1244.12 1496.09 1283.67C1481.44 1304.18 1472.65 1315.9 1472.65 1315.9L1473.14 1316.39C1461.43 1332.01 1448.24 1348.62 1434.57 1365.22C1384.77 1424.79 1325.2 1492.66 1317.38 1512.19C1308.11 1535.14 1310.06 1552.23 1328.12 1565.9C1341.31 1575.67 1364.75 1577.62 1389.65 1575.67C1434.57 1572.74 1465.82 1561.51 1481.45 1554.67C1505.86 1545.88 1533.69 1532.7 1560.55 1513.17C1609.38 1477.04 1639.16 1425.77 1636.23 1357.41C1634.77 1319.81 1622.56 1282.7 1607.42 1247.54C1611.82 1241.2 1616.22 1234.84 1620.61 1228.01C1697.75 1115.22 1757.32 991.197 1757.32 991.197C1757.32 991.197 1763.18 1029.28 1781.25 1091.78C1790.52 1123.52 1809.08 1158.19 1825.68 1192.37C1753.42 1251.46 1708.01 1319.82 1692.38 1364.74C1663.57 1447.75 1686.04 1485.34 1728.52 1494.13C1747.55 1498.04 1774.9 1489.25 1795.41 1480.46C1820.8 1472.16 1851.56 1457.99 1879.88 1437C1928.71 1400.87 1975.59 1350.58 1973.14 1282.71C1971.68 1251.46 1963.38 1220.69 1952.15 1191.4C2013.67 1166.01 2093.26 1151.36 2194.34 1163.57C2411.62 1188.96 2454.59 1324.7 2446.29 1381.34C2437.99 1437.98 2392.58 1469.23 2377.44 1479C2362.3 1488.27 2357.42 1491.7 2358.89 1498.53C2360.84 1508.79 2367.68 1508.29 2380.86 1506.34C2398.93 1503.41 2495.12 1459.96 2499.02 1355.47C2504.88 1221.17 2377.44 1074.69 2151.37 1076.15V1076.15ZM475.586 1641.09C403.809 1719.7 302.734 1749.49 259.766 1724.1C213.379 1697.24 231.44 1581.52 319.824 1498.02C373.535 1447.24 443.359 1400.37 489.258 1371.56C499.512 1365.21 515.137 1355.94 533.691 1344.7C536.621 1342.75 538.574 1341.77 538.574 1341.77C541.992 1339.82 545.898 1337.38 549.805 1334.94C582.52 1454.08 551.27 1558.57 475.586 1641.09V1641.09ZM1000.49 1284.16C975.586 1345.19 922.852 1501.93 891.113 1493.14C863.765 1485.82 847.168 1367.16 885.737 1249.98C905.269 1190.89 946.772 1120.58 971.187 1093.23C1010.74 1049.29 1053.71 1034.64 1064.45 1052.71C1077.15 1076.15 1016.11 1246.07 1000.49 1284.16ZM1433.59 1491.19C1422.85 1496.56 1413.09 1500.46 1408.69 1497.54C1405.27 1495.59 1413.08 1488.26 1413.08 1488.26C1413.08 1488.26 1467.28 1430.16 1488.76 1403.3C1500.97 1387.68 1515.62 1369.62 1531.25 1349.1V1354.96C1531.25 1425.27 1463.87 1472.14 1433.59 1491.19ZM1767.57 1415.02C1759.76 1409.16 1760.74 1391.09 1787.1 1334.45C1797.36 1311.99 1820.8 1274.39 1861.32 1238.75C1866.21 1253.39 1869.14 1267.55 1868.65 1280.74C1868.16 1368.63 1805.66 1401.34 1767.57 1415.02Z" fill="black"/>
</svg>
