<svg width="811" height="899" viewBox="0 0 811 899" fill="none" xmlns="http://www.w3.org/2000/svg">
<path d="M810.45 554.75V749.177C792.517 742.837 772.848 739.667 752.6 739.667C695.329 739.667 644.421 765.555 612.603 805.18C566.323 765.027 503.845 739.667 434.425 739.667H376.575C307.155 739.667 244.677 765.027 198.397 805.18C166.58 765.555 115.672 739.667 58.4001 739.667H0.550049V554.75C0.550049 683.135 363.848 686.833 405.5 686.833C447.152 686.833 810.45 683.135 810.45 554.75Z" fill="black"/>
<path d="M810.45 449.083C810.45 577.468 446.921 581.167 405.5 581.167C364.079 581.167 0.550049 577.468 0.550049 449.083V237.75C0.550049 366.135 364.079 369.833 405.5 369.833C446.921 369.833 810.45 366.135 810.45 237.75V449.083Z" fill="black"/>
<path d="M809.9 766.333C809.9 894.718 446.371 898.417 404.95 898.417C363.529 898.417 0 894.718 0 766.333V555C0 683.385 363.529 687.083 404.95 687.083C446.371 687.083 809.9 683.385 809.9 555V766.333Z" fill="black"/>
<path d="M405.5 0C363.848 0 0.550049 3.69833 0.550049 132.083C0.550049 260.468 363.848 264.167 405.5 264.167C447.152 264.167 810.45 260.468 810.45 132.083C810.45 3.69833 447.152 0 405.5 0Z" fill="black"/>
</svg>
