<svg id="Capa_1" enable-background="new 0 0 512 512" height="512" viewBox="0 0 512 512" width="512" xmlns="http://www.w3.org/2000/svg"><path d="m256 0c-56.384 0-110.458 18.868-156.378 54.563-6.541 5.084-7.721 14.508-2.637 21.049 5.084 6.542 14.509 7.72 21.049 2.637 40.605-31.565 88.313-48.249 137.966-48.249 98.337 0 182.191 63.139 213.191 151h-33.185c-30.15-72.202-101.18-120-180.006-120-107.523 0-195 87.477-195 195 0 29.403 6.413 57.684 19.059 84.058 3.573 7.451 12.523 10.63 20.011 7.04 7.47-3.582 10.622-12.542 7.04-20.011-10.69-22.293-16.11-46.21-16.11-71.087 0-85.925 66.023-156.707 150-164.311v30.139c-67.405 7.486-120 64.803-120 134.172 0 31.827 11.078 61.112 29.571 84.216l-64.551 64.551c-34.858-39.778-56.02-91.845-56.02-148.767 0-49.653 16.684-97.361 48.249-137.966 5.084-6.541 3.904-15.964-2.637-21.049-6.542-5.085-15.964-3.904-21.049 2.637-35.695 45.92-54.563 99.994-54.563 156.378 0 140.959 115.05 256 256 256 140.959 0 256-115.049 256-256 0-140.959-115.049-256-256-256zm-148.767 425.98 64.551-64.551c23.104 18.493 52.389 29.571 84.216 29.571 69.369 0 126.676-52.594 134.162-120h30.162c-3.575 39.505-21.137 75.033-47.677 101.586-.01.01-.022.019-.032.029-.007.007-.013.016-.021.023-29.875 29.864-71.114 48.362-116.594 48.362-24.877 0-48.794-5.42-71.086-16.11-7.472-3.583-16.43-.43-20.011 7.04-3.582 7.47-.43 16.429 7.04 20.011 26.373 12.646 54.654 19.059 84.057 19.059 48.374 0 92.685-17.712 126.803-46.984l21.964 21.964c-39.778 34.858-91.845 56.02-148.767 56.02s-108.989-21.162-148.767-56.02zm318.747-21.213-21.964-21.964c29.271-34.118 46.984-78.429 46.984-126.803 0-8.284-6.716-15-15-15h-45.863c-4.766-42.146-29.369-80.28-66.614-101.872-7.167-4.155-16.347-1.713-20.5 5.454-4.155 7.167-1.714 16.345 5.453 20.5 32.398 18.782 52.524 53.62 52.524 90.918 0 57.897-47.103 105-105 105-53.03 0-96.654-39.4-103.924-90h43.924c8.284 0 15-6.716 15-15 0-24.813 20.187-45 45-45s45 20.187 45 45-20.187 45-45 45c-8.348 0-16.492-2.298-23.551-6.645-7.052-4.344-16.294-2.146-20.638 4.907-4.344 7.054-2.147 16.294 4.907 20.638 11.793 7.262 25.376 11.1 39.282 11.1 41.355 0 75-33.645 75-75s-33.645-75-75-75c-36.219 0-66.524 25.809-73.493 60h-30.431c7.301-50.817 51.119-90 103.924-90 8.284 0 15-6.716 15-15v-44.308c63.566 5.822 118.941 48.276 140.582 109.32 2.122 5.987 7.786 9.988 14.138 9.988h51.775c2.951 14.547 4.506 29.595 4.506 45-.001 56.922-21.162 108.988-56.021 148.767z"/></svg>