<svg width="290" height="290" viewBox="0 0 290 290" fill="none" xmlns="http://www.w3.org/2000/svg">
<path d="M144.9 289.8C224.926 289.8 289.8 224.926 289.8 144.9C289.8 64.8739 224.926 0 144.9 0C64.8739 0 0 64.8739 0 144.9C0 224.926 64.8739 289.8 144.9 289.8Z" fill="#1E1E1E"/>
<path d="M124.968 164.832C95.4891 135.353 91.7764 89.8637 113.827 56.35C102.705 60.8354 92.2788 67.5813 83.2628 76.5973C47.3791 112.481 47.3791 170.657 83.2628 206.537C119.146 242.418 177.322 242.421 213.203 206.537C222.219 197.521 228.965 187.098 233.45 175.973C199.936 198.027 154.447 194.314 124.968 164.832Z" fill="#FF8561"/>
<path d="M177.802 132.361C174.315 121.893 166.036 113.614 155.568 110.124C153.823 109.541 153.823 107.117 155.568 106.534C166.036 103.046 174.315 94.7678 177.802 84.2996C178.385 82.5544 180.809 82.5544 181.392 84.2996C184.88 94.7678 193.158 103.046 203.63 106.534C205.375 107.113 205.375 109.541 203.63 110.124C193.161 113.611 184.883 121.893 181.392 132.361C180.813 134.107 178.385 134.107 177.802 132.361Z" fill="#FFFCAB"/>
<path d="M251.691 137.43C253.763 137.43 255.443 135.75 255.443 133.678C255.443 131.607 253.763 129.927 251.691 129.927C249.62 129.927 247.94 131.607 247.94 133.678C247.94 135.75 249.62 137.43 251.691 137.43Z" fill="#FFFCAB"/>
<path d="M127.721 268.773C129.793 268.773 131.473 267.094 131.473 265.022C131.473 262.95 129.793 261.271 127.721 261.271C125.65 261.271 123.97 262.95 123.97 265.022C123.97 267.094 125.65 268.773 127.721 268.773Z" fill="#FFFCAB"/>
<path d="M144.916 44.4682C146.988 44.4682 148.667 42.7887 148.667 40.7169C148.667 38.6451 146.988 36.9656 144.916 36.9656C142.844 36.9656 141.165 38.6451 141.165 40.7169C141.165 42.7887 142.844 44.4682 144.916 44.4682Z" fill="#FFFCAB"/>
<path d="M183.363 168.277C185.435 168.277 187.114 166.598 187.114 164.526C187.114 162.454 185.435 160.775 183.363 160.775C181.291 160.775 179.612 162.454 179.612 164.526C179.612 166.598 181.291 168.277 183.363 168.277Z" fill="#FFFCAB"/>
<path d="M29.2859 112.088C31.3577 112.088 33.0372 110.409 33.0372 108.337C33.0372 106.265 31.3577 104.586 29.2859 104.586C27.2141 104.586 25.5346 106.265 25.5346 108.337C25.5346 110.409 27.2141 112.088 29.2859 112.088Z" fill="#FFFCAB"/>
<path d="M226.157 249.131C228.228 249.131 229.908 247.452 229.908 245.38C229.908 243.308 228.228 241.629 226.157 241.629C224.085 241.629 222.405 243.308 222.405 245.38C222.405 247.452 224.085 249.131 226.157 249.131Z" fill="#FFFCAB"/>
<path d="M222.421 51.9708C224.493 51.9708 226.173 50.2913 226.173 48.2195C226.173 46.1477 224.493 44.4682 222.421 44.4682C220.35 44.4682 218.67 46.1477 218.67 48.2195C218.67 50.2913 220.35 51.9708 222.421 51.9708Z" fill="#FFFCAB"/>
<path d="M52.5987 196.581C54.6705 196.581 56.35 194.901 56.35 192.83C56.35 190.758 54.6705 189.078 52.5987 189.078C50.5269 189.078 48.8474 190.758 48.8474 192.83C48.8474 194.901 50.5269 196.581 52.5987 196.581Z" fill="#FFFCAB"/>
</svg>
