<svg width="220" height="214" viewBox="0 0 220 214" fill="none" xmlns="http://www.w3.org/2000/svg">
<path d="M110 0C49.225 0 0 49.0286 0 109.5C0 157.89 31.515 198.925 75.2125 213.388C80.7125 214.419 82.7292 211.034 82.7292 208.123C82.7292 205.522 82.6375 198.633 82.5917 189.508C51.9933 196.114 45.54 174.817 45.54 174.817C40.535 162.179 33.3025 158.802 33.3025 158.802C23.3383 152.013 34.0725 152.15 34.0725 152.15C45.1183 152.917 50.9208 163.429 50.9208 163.429C60.7292 180.173 76.67 175.337 82.9583 172.535C83.9483 165.454 86.7808 160.627 89.925 157.89C65.4958 155.152 39.82 145.735 39.82 103.779C39.82 91.8249 44.0825 82.0611 51.1408 74.3961C49.9033 71.6312 46.1908 60.4988 52.1033 45.4151C52.1033 45.4151 61.3158 42.4769 82.3533 56.6389C91.1533 54.2025 100.503 52.998 109.853 52.9433C119.203 52.998 128.553 54.2025 137.353 56.6389C158.253 42.4769 167.466 45.4151 167.466 45.4151C173.378 60.4988 169.666 71.6312 168.566 74.3961C175.578 82.0611 179.841 91.8249 179.841 103.779C179.841 145.845 154.128 155.107 129.653 157.799C133.503 161.084 137.078 167.8 137.078 178.056C137.078 192.711 136.941 204.482 136.941 208.041C136.941 210.915 138.866 214.337 144.503 213.242C188.513 198.879 220 157.817 220 109.5C220 49.0286 170.748 0 110 0" fill="#606060"/>
</svg>
