<svg id="Capa_1" enable-background="new 0 0 512 512" height="512" viewBox="0 0 512 512" width="512" xmlns="http://www.w3.org/2000/svg"><g><path d="m190.437 300.349-48.514 48.514-3.535-3.535c-5.858-5.858-15.355-5.858-21.213 0l-56.998 56.998 49.497 49.497 56.998-56.998c5.858-5.858 5.858-15.355 0-21.213l-3.535-3.535 48.514-48.514c-7.587-6.535-14.679-13.627-21.214-21.214z"/><circle cx="342" cy="115" r="30"/><path d="m342 175c-34.159 0-62.248 26.486-64.81 60h129.62c-2.562-33.514-30.651-60-64.81-60z"/><path d="m342 0c-93.888 0-170 76.112-170 170s76.112 170 170 170 170-76.112 170-170-76.112-170-170-170zm95 250c0 8.284-6.716 15-15 15h-160c-8.284 0-15-6.716-15-15v-10c0-36.538 20.737-68.318 51.057-84.205-9.954-10.714-16.057-25.052-16.057-40.795 0-33.084 26.916-60 60-60s60 26.916 60 60c0 15.743-6.103 30.081-16.057 40.795 30.32 15.887 51.057 47.667 51.057 84.205z"/><path d="m10.251 452.251c-13.668 13.668-13.668 35.829 0 49.497 13.668 13.668 35.829 13.668 49.497 0l28.713-28.713-49.497-49.497z"/></g></svg>