<svg width="512" height="512" viewBox="0 0 512 512" fill="none" xmlns="http://www.w3.org/2000/svg">
<path d="M156.748 445.37C146.9 445.37 132.523 440.547 100.586 404.805C84.354 386.64 71.053 368.772 70.493 368.02C70.117 367.513 69.776 366.983 69.468 366.432C63.397 355.499 60.187 343.111 60.187 330.605V239.715C60.187 231.79 66.613 225.365 74.537 225.365H190.612C207.237 225.365 222.919 231.786 234.767 243.447L294.202 301.93C311.42 319.148 311.42 347.032 294.285 364.169C294.259 364.193 294.139 364.314 294.114 364.338C285.887 372.565 274.85 377.136 263.112 377.136C251.371 377.136 240.335 372.564 232.034 364.263L172.664 304.893C166.775 304.849 157.212 304.804 149.575 304.77L138.708 304.718C130.784 304.676 124.391 298.219 124.433 290.294C124.473 282.395 130.892 276.019 138.781 276.019C138.807 276.019 138.831 276.019 138.857 276.019L149.707 276.071C156.493 276.101 163.745 276.136 169.313 276.17C172.121 276.189 174.503 276.206 176.189 276.226C180.362 276.272 184.678 276.321 188.842 280.485L252.328 343.971C255.208 346.852 259.038 348.438 263.113 348.438C267.187 348.438 271.017 346.852 273.897 343.971C273.923 343.945 274.043 343.826 274.068 343.802C279.941 337.929 279.941 328.253 273.993 322.306L214.64 263.903C208.193 257.559 199.662 254.065 190.616 254.065H88.889V330.606C88.889 337.943 90.697 345.214 94.124 351.696C96.739 355.164 107.71 369.556 120.595 384.119C146.071 412.916 155.806 416.327 157.099 416.673L312.248 416.641C322.825 416.641 335.15 411.103 346.869 405.433C356.76 400.647 430.203 350.831 474.173 320.555C474.413 320.39 474.658 320.232 474.908 320.081C483.107 315.143 485.761 304.45 480.821 296.248C478.43 292.277 474.632 289.475 470.132 288.357C465.718 287.262 461.143 287.916 457.222 290.199L350.036 361.28C343.431 365.659 334.524 363.854 330.147 357.252C325.766 350.647 327.57 341.742 334.176 337.362L441.659 266.082C441.831 265.967 442.008 265.855 442.186 265.749C463.94 252.645 492.302 259.685 505.409 281.443C518.427 303.066 511.556 331.209 490.124 344.418C476.839 353.564 374.356 424.017 359.373 431.266C344.659 438.388 328.899 445.342 312.253 445.342L156.756 445.374C156.752 445.37 156.749 445.37 156.748 445.37Z" fill="black"/>
<path d="M98.491 426.019H14.35C6.426 426.019 0 419.595 0 411.669V222.088C0 214.163 6.426 207.738 14.35 207.738H98.492C106.416 207.738 112.842 214.162 112.842 222.088V411.669C112.841 419.594 106.415 426.019 98.491 426.019ZM28.699 397.319H84.142V236.437H28.699V397.319Z" fill="black"/>
<path d="M347.833 239.393C300.201 239.393 261.45 200.642 261.45 153.01C261.45 105.378 300.201 66.627 347.833 66.627C395.465 66.627 434.216 105.378 434.216 153.01C434.216 200.642 395.467 239.393 347.833 239.393ZM347.833 95.326C316.026 95.326 290.149 121.203 290.149 153.01C290.149 184.817 316.026 210.694 347.833 210.694C379.64 210.694 405.517 184.817 405.517 153.01C405.519 121.203 379.641 95.326 347.833 95.326Z" fill="black"/>
<path d="M275.8 167.36H132.328C124.404 167.36 117.978 160.936 117.978 153.01V112.927C117.978 105.002 124.404 98.577 132.328 98.577C140.252 98.577 146.678 105.001 146.678 112.927V138.66H275.8C283.724 138.66 290.15 145.084 290.15 153.01C290.149 160.935 283.725 167.36 275.8 167.36Z" fill="black"/>
<path d="M179.641 167.36C171.717 167.36 165.291 160.936 165.291 153.01V124.372C165.291 116.447 171.717 110.022 179.641 110.022C187.565 110.022 193.991 116.446 193.991 124.372V153.011C193.991 160.935 187.567 167.36 179.641 167.36Z" fill="black"/>
</svg>
