<svg width="100" height="100" viewBox="0 0 100 100" fill="none" xmlns="http://www.w3.org/2000/svg">
<g clip-path="url(#clip0)">
<path d="M48.199 45.317C47.527 42.5 46.277 40.6 44.842 40.6V59.444C46.278 59.444 47.528 57.545 48.199 54.727V59.449H82.859V56.141H58.891C57.162 56.141 55.76 54.74 55.76 53.012C55.76 51.282 57.16 49.88 58.891 49.88H82.86V48.817H58.004C57.611 48.817 57.295 48.5 57.295 48.108C57.295 47.716 57.611 47.4 58.004 47.4H82.859V40.312H48.199V45.317Z" fill="white"/>
<path d="M85.104 40.128V59.085C93.1 59.085 99.579 54.842 99.579 49.606C99.579 44.37 93.1 40.128 85.104 40.128Z" fill="white"/>
<path d="M34.73 40.667H1.064V42.085H34.73V40.667Z" fill="white"/>
<path d="M38.629 47.046H14.176V48.463H38.629V47.046Z" fill="white"/>
<path d="M31.541 50.058H15.416V51.476H31.541V50.058Z" fill="white"/>
<path d="M30.125 54.312H0V55.728H30.125V54.312Z" fill="white"/>
</g>
<defs>
<clipPath id="clip0">
<rect width="99.578" height="99.578" fill="white"/>
</clipPath>
</defs>
</svg>
