<?xml version="1.0" standalone="no"?>
<!DOCTYPE svg PUBLIC "-//W3C//DTD SVG 20010904//EN"
 "http://www.w3.org/TR/2001/REC-SVG-20010904/DTD/svg10.dtd">
<svg version="1.0" xmlns="http://www.w3.org/2000/svg"
 width="1280.000000pt" height="720.000000pt" viewBox="0 0 1280.000000 720.000000"
 preserveAspectRatio="xMidYMid meet">
<metadata>
Created by potrace 1.15, written by Peter Selinger 2001-2017
</metadata>
<g transform="translate(0.000000,720.000000) scale(0.100000,-0.100000)"
fill="#000000" stroke="none">
<path d="M3000 6925 c-173 -24 -361 -77 -432 -121 -52 -33 -106 -91 -117 -128
-6 -17 -38 -173 -71 -347 l-62 -316 -91 -64 c-118 -82 -323 -287 -409 -409
-112 -158 -210 -363 -257 -535 -30 -109 -44 -192 -151 -930 -55 -379 -114
-780 -130 -890 -16 -110 -75 -510 -130 -890 -55 -379 -104 -717 -110 -751 -37
-225 38 -528 186 -751 407 -614 1283 -688 1790 -151 88 93 132 158 216 318 67
128 636 1251 673 1327 11 23 22 42 25 42 3 1 22 -26 44 -59 117 -183 338 -351
560 -426 213 -73 489 -73 702 0 157 53 327 160 441 278 63 65 149 186 183 255
l25 52 620 0 620 1 34 -63 c166 -306 461 -514 804 -568 124 -19 342 -7 451 26
130 38 222 78 312 137 92 60 264 228 318 312 l38 58 49 -92 c27 -50 196 -382
375 -737 180 -355 350 -680 378 -722 27 -42 89 -114 136 -161 455 -456 1182
-453 1632 7 203 208 313 461 325 743 4 120 0 155 -97 815 -102 696 -149 1021
-304 2081 -47 320 -92 612 -101 650 -91 402 -327 764 -657 1010 -53 39 -102
74 -108 76 -7 2 -39 139 -76 328 -35 179 -66 336 -69 350 -9 36 -93 113 -156
143 -64 30 -249 80 -364 99 -46 7 -163 12 -275 12 -218 0 -352 -19 -523 -74
-107 -34 -169 -70 -217 -127 -34 -40 -37 -50 -94 -339 -33 -165 -64 -318 -69
-341 l-9 -43 -2352 0 -2351 0 -64 323 c-35 177 -72 341 -83 364 -40 88 -170
154 -391 202 -195 42 -430 52 -617 26z m682 -1092 l38 -37 0 -300 0 -300 37
-38 37 -38 303 0 303 0 40 -36 40 -36 0 -411 0 -411 -37 -38 -37 -38 -305 0
-305 0 -38 -37 -38 -37 0 -300 0 -300 -37 -38 -37 -38 -400 0 -400 0 -38 37
-38 37 0 300 0 300 -37 38 -37 38 -305 0 -305 0 -38 37 -38 37 0 412 0 412 40
36 40 36 302 0 302 0 38 37 38 37 0 300 0 300 37 38 37 38 400 0 400 0 38 -37z
m6520 0 l38 -37 0 -300 0 -300 37 -38 37 -38 303 0 303 0 40 -36 40 -36 0
-411 0 -411 -37 -38 -37 -38 -305 0 -305 0 -38 -37 -38 -37 0 -300 0 -300 -37
-38 -37 -38 -400 0 -400 0 -38 37 -38 37 0 300 0 300 -37 38 -37 38 -305 0
-305 0 -38 37 -38 37 0 405 0 405 42 43 42 43 300 0 300 0 38 37 38 37 0 300
0 300 37 38 37 38 400 0 400 0 38 -37z m-5179 -2074 c105 -16 172 -36 261 -80
102 -51 158 -92 243 -183 155 -162 227 -350 226 -586 0 -106 -4 -139 -27 -214
-51 -169 -116 -276 -240 -393 -178 -169 -434 -255 -670 -224 -202 26 -347 94
-488 229 -180 172 -262 363 -261 612 0 248 82 441 260 611 142 136 279 200
493 233 52 7 134 6 203 -5z m3180 0 c345 -50 619 -296 708 -634 16 -61 21
-110 21 -205 0 -95 -5 -144 -21 -205 -79 -300 -295 -521 -598 -611 -75 -22
-108 -26 -218 -27 -148 -1 -223 14 -345 67 -400 173 -605 634 -466 1043 132
388 523 631 919 572z"/>
<path d="M3147 5712 c-42 -42 -77 -81 -77 -85 0 -4 75 -7 167 -7 l168 0 -85
85 c-47 47 -87 85 -90 85 -3 0 -40 -35 -83 -78z"/>
<path d="M3000 5243 l0 -238 107 -74 c59 -41 114 -75 124 -75 9 -1 67 34 128
77 l111 77 0 235 0 235 -235 0 -235 0 0 -237z"/>
<path d="M2420 4665 l0 -235 235 0 235 0 77 111 c43 61 78 117 78 126 0 8 -34
64 -75 124 l-75 108 -237 1 -238 0 0 -235z"/>
<path d="M3490 4784 l-81 -115 18 -27 c10 -16 47 -69 83 -120 l64 -92 233 0
233 0 0 235 0 235 -234 0 -235 0 -81 -116z"/>
<path d="M2185 4750 l-80 -80 88 -88 87 -87 0 168 c0 92 -3 167 -8 167 -4 0
-43 -36 -87 -80z"/>
<path d="M4190 4663 l0 -168 85 85 85 85 -82 82 c-46 46 -84 83 -85 83 -2 0
-3 -75 -3 -167z"/>
<path d="M3113 4409 l-113 -81 0 -234 0 -234 235 0 235 0 0 233 0 232 -112 78
c-61 44 -116 80 -122 82 -6 2 -62 -32 -123 -76z"/>
<path d="M3150 3625 l85 -85 82 82 c46 46 83 84 83 85 0 2 -75 3 -167 3 l-168
0 85 -85z"/>
<path d="M9658 5807 c-100 -38 -167 -97 -215 -190 -38 -75 -44 -207 -13 -290
30 -81 111 -165 192 -203 54 -25 75 -29 153 -29 77 0 98 4 147 27 32 15 81 50
108 78 28 27 63 76 78 108 23 49 27 70 27 147 0 78 -4 99 -29 152 -34 74 -113
154 -183 185 -60 27 -209 35 -265 15z"/>
<path d="M8845 5007 c-106 -36 -182 -100 -232 -197 -25 -49 -28 -65 -28 -155
0 -89 3 -106 28 -157 36 -74 107 -144 177 -177 48 -23 68 -26 155 -26 89 0
106 3 157 28 74 36 139 101 175 175 25 50 28 68 28 152 0 87 -3 101 -32 161
-62 125 -175 200 -313 206 -44 2 -91 -3 -115 -10z"/>
<path d="M10504 4990 c-250 -50 -373 -344 -234 -559 70 -108 175 -164 305
-164 111 0 182 28 255 102 86 86 105 134 105 261 0 101 -1 108 -34 168 -56
103 -147 170 -260 192 -61 11 -79 11 -137 0z"/>
<path d="M9638 4176 c-159 -57 -251 -185 -251 -351 0 -147 71 -263 201 -327
61 -30 74 -33 162 -33 81 1 103 4 152 27 107 50 185 152 207 273 31 167 -71
343 -233 404 -66 24 -180 28 -238 7z"/>
<path d="M4820 3660 c-471 -55 -770 -540 -611 -989 39 -111 84 -183 171 -272
291 -296 762 -298 1055 -4 291 290 291 760 0 1050 -120 121 -263 191 -435 214
-46 6 -90 10 -99 10 -9 -1 -45 -5 -81 -9z"/>
<path d="M8000 3660 c-302 -36 -548 -249 -632 -547 -28 -101 -30 -276 -4 -372
67 -247 242 -439 474 -522 355 -125 738 27 912 363 108 207 108 468 0 676
-145 279 -443 439 -750 402z"/>
</g>
</svg>
