<svg width="1266" height="791" viewBox="0 0 1266 791" fill="none" xmlns="http://www.w3.org/2000/svg">
<line x1="402.268" y1="686.884" x2="777.268" y2="37.3654" stroke="black" stroke-width="4"/>
<line x1="402.268" y1="650.519" x2="777.268" y2="1" stroke="black" stroke-width="4"/>
<line x1="4" y1="771" x2="404" y2="771" stroke="black" stroke-width="4"/>
<line x1="24" y1="756" x2="404" y2="756" stroke="black" stroke-width="4"/>
<line x1="581" y1="462" x2="1006" y2="462" stroke="black" stroke-width="4"/>
<line x1="44" y1="739" x2="404" y2="739" stroke="black" stroke-width="4"/>
<line x1="591" y1="445" x2="1006" y2="445" stroke="black" stroke-width="4"/>
<line x1="42.2679" y1="739.769" x2="242.268" y2="393.359" stroke="black" stroke-width="4"/>
<line x1="62.2679" y1="723.769" x2="242.268" y2="412" stroke="black" stroke-width="4"/>
<line x1="82.2679" y1="706.128" x2="242.268" y2="429" stroke="black" stroke-width="4"/>
<line x1="102.268" y1="686.487" x2="242.268" y2="444" stroke="black" stroke-width="4"/>
<line x1="122.268" y1="668.846" x2="242.268" y2="461" stroke="black" stroke-width="4"/>
<line x1="142.268" y1="651.205" x2="242.268" y2="478" stroke="black" stroke-width="4"/>
<line x1="64" y1="723" x2="404" y2="723" stroke="black" stroke-width="4"/>
<line x1="601" y1="430" x2="1006" y2="430" stroke="black" stroke-width="4"/>
<line x1="84" y1="705" x2="404" y2="705" stroke="black" stroke-width="4"/>
<line x1="611" y1="413" x2="1006" y2="413" stroke="black" stroke-width="4"/>
<line x1="104" y1="686" x2="404" y2="686" stroke="black" stroke-width="4"/>
<line x1="621" y1="394" x2="1006" y2="394" stroke="black" stroke-width="4"/>
<line x1="124" y1="668" x2="404" y2="668" stroke="black" stroke-width="4"/>
<line x1="124" y1="668" x2="404" y2="668" stroke="black" stroke-width="4"/>
<line x1="631" y1="377" x2="1006" y2="377" stroke="black" stroke-width="4"/>
<line x1="241" y1="462" x2="511" y2="462" stroke="black" stroke-width="4"/>
<line opacity="0.75" x1="241" y1="445" x2="521" y2="445" stroke="black" stroke-width="4"/>
<line x1="241" y1="430" x2="529" y2="430" stroke="black" stroke-width="4"/>
<line x1="241" y1="413" x2="539" y2="413" stroke="black" stroke-width="4"/>
<line opacity="0.9" x1="241" y1="394" x2="551" y2="394" stroke="black" stroke-width="4"/>
<line x1="241" y1="377" x2="561" y2="377" stroke="black" stroke-width="4"/>
<line x1="241" y1="357" x2="571" y2="357" stroke="black" stroke-width="4"/>
<line x1="866" y1="28" x2="1266" y2="28" stroke="black" stroke-width="4"/>
<line x1="866" y1="46" x2="1246" y2="46" stroke="black" stroke-width="4"/>
<line x1="866" y1="64" x2="1226" y2="64" stroke="black" stroke-width="4"/>
<line x1="866" y1="84" x2="1206" y2="84" stroke="black" stroke-width="4"/>
<line x1="866" y1="102" x2="1186" y2="102" stroke="black" stroke-width="4"/>
<line x1="866" y1="117" x2="1166" y2="117" stroke="black" stroke-width="4"/>
<line x1="866" y1="135" x2="1146" y2="135" stroke="black" stroke-width="4"/>
<line x1="866" y1="150" x2="1126" y2="150" stroke="black" stroke-width="4"/>
<line x1="571" y1="479" x2="1006" y2="479" stroke="black" stroke-width="4"/>
<line x1="144" y1="650" x2="404" y2="650" stroke="black" stroke-width="4"/>
<line x1="641" y1="357" x2="1006" y2="357" stroke="black" stroke-width="4"/>
<line x1="241" y1="479" x2="501" y2="479" stroke="black" stroke-width="4"/>
<line x1="2.26795" y1="771.692" x2="242.268" y2="356" stroke="black" stroke-width="4"/>
<line x1="1004.27" y1="479.692" x2="1264.27" y2="29.359" stroke="black" stroke-width="4"/>
<line x1="1004.27" y1="462.692" x2="1244.27" y2="47" stroke="black" stroke-width="4"/>
<line x1="1004.27" y1="446.051" x2="1224.27" y2="65" stroke="black" stroke-width="4"/>
<line x1="1004.27" y1="431.41" x2="1204.27" y2="85" stroke="black" stroke-width="4"/>
<line x1="1004.27" y1="414.41" x2="1184.27" y2="102.641" stroke="black" stroke-width="4"/>
<line x1="1004.27" y1="395.128" x2="1164.27" y2="118" stroke="black" stroke-width="4"/>
<line x1="1004.27" y1="378.128" x2="1144.27" y2="135.641" stroke="black" stroke-width="4"/>
<line x1="1004.27" y1="358.487" x2="1124.27" y2="150.641" stroke="black" stroke-width="4"/>
<line x1="748.268" y1="355.98" x2="867.768" y2="149" stroke="black" stroke-width="4"/>
<line x1="739.268" y1="356.569" x2="867.768" y2="134" stroke="black" stroke-width="4"/>
<line x1="728.268" y1="357.621" x2="867.768" y2="116" stroke="black" stroke-width="4"/>
<line x1="720.268" y1="356.477" x2="867.768" y2="101" stroke="black" stroke-width="4"/>
<line x1="709.268" y1="357.53" x2="867.768" y2="83" stroke="black" stroke-width="4"/>
<line x1="698.268" y1="356.583" x2="867.768" y2="63" stroke="black" stroke-width="4"/>
<line x1="688.268" y1="355.903" x2="867.768" y2="45" stroke="black" stroke-width="4"/>
<line x1="677.268" y1="356.956" x2="867.768" y2="27" stroke="black" stroke-width="4"/>
<line x1="426.268" y1="789.769" x2="606.268" y2="478" stroke="black" stroke-width="4"/>
<line x1="443.268" y1="778.779" x2="615.768" y2="480" stroke="black" stroke-width="4"/>
<line x1="460.268" y1="765.788" x2="625.268" y2="480" stroke="black" stroke-width="4"/>
<line x1="479.268" y1="752.798" x2="636.768" y2="480" stroke="black" stroke-width="4"/>
<line x1="512.268" y1="726.817" x2="654.768" y2="480" stroke="black" stroke-width="4"/>
<line x1="529.268" y1="713.827" x2="664.268" y2="480" stroke="black" stroke-width="4"/>
<line x1="545.268" y1="700.836" x2="672.768" y2="480" stroke="black" stroke-width="4"/>
<line x1="496.268" y1="739.808" x2="646.268" y2="480" stroke="black" stroke-width="4"/>
<line x1="22.2679" y1="757.051" x2="242.268" y2="376" stroke="black" stroke-width="4"/>
<line x1="402.268" y1="705.519" x2="777.268" y2="56" stroke="black" stroke-width="4"/>
<line x1="402.268" y1="723.519" x2="777.268" y2="74" stroke="black" stroke-width="4"/>
<line x1="402.268" y1="739.519" x2="777.268" y2="90" stroke="black" stroke-width="4"/>
<line x1="402.268" y1="756.519" x2="777.268" y2="107" stroke="black" stroke-width="4"/>
<line x1="402.268" y1="771.519" x2="777.268" y2="122" stroke="black" stroke-width="4"/>
<line x1="402.268" y1="668.519" x2="777.268" y2="19" stroke="black" stroke-width="4"/>
</svg>
