<svg width="24" height="22" viewBox="0 0 24 22" fill="none" xmlns="http://www.w3.org/2000/svg">
<path d="M14.23 11.004C14.23 11.5969 13.9946 12.1655 13.5754 12.5848C13.1563 13.0041 12.5879 13.2398 11.995 13.24C11.402 13.24 10.8332 13.0044 10.4139 12.5851C9.99458 12.1658 9.759 11.597 9.759 11.004C9.759 10.4112 9.99444 9.84259 10.4136 9.42329C10.8327 9.00399 11.4011 8.76829 11.994 8.76803C12.587 8.76803 13.1558 9.0036 13.5751 9.42293C13.9944 9.84227 14.23 10.411 14.23 11.004V11.004ZM16.878 0.314026C15.532 0.314026 13.771 1.27403 11.99 2.93603C10.21 1.28303 8.448 0.334026 7.103 0.334026C6.693 0.334026 6.32 0.427026 5.997 0.612026C4.622 1.40503 4.314 3.87603 5.024 6.97703C1.98 7.91703 0 9.42003 0 11.004C0 12.594 1.99 14.101 5.043 15.034C4.339 18.147 4.653 20.622 6.031 21.414C6.351 21.601 6.721 21.689 7.133 21.689C8.478 21.689 10.24 20.729 12.021 19.065C13.801 20.719 15.563 21.668 16.908 21.668C17.318 21.668 17.691 21.578 18.014 21.393C19.388 20.601 19.697 18.13 18.987 15.028C22.02 14.096 24 12.59 24 11.004C24 9.41403 22.01 7.90703 18.957 6.97203C19.661 3.86203 19.347 1.38503 17.969 0.592026C17.651 0.408026 17.281 0.315026 16.877 0.314026H16.878ZM16.873 1.40403V1.41003C17.098 1.41003 17.279 1.45403 17.431 1.53703C18.097 1.91903 18.386 3.37203 18.161 5.24103C18.107 5.70103 18.019 6.18603 17.911 6.68103C16.951 6.44503 15.905 6.26403 14.804 6.14703C14.144 5.24203 13.459 4.42003 12.769 3.70003C14.361 2.22003 15.856 1.40803 16.874 1.40503L16.873 1.40403ZM7.103 1.42403C8.115 1.42403 9.617 2.23203 11.213 3.70403C10.527 4.42403 9.843 5.24103 9.193 6.14603C8.086 6.26303 7.039 6.44403 6.08 6.68403C5.968 6.19403 5.885 5.72003 5.826 5.26403C5.596 3.39603 5.88 1.94403 6.54 1.55703C6.73 1.46703 6.94 1.43003 7.103 1.42503V1.42403ZM11.985 4.47403C12.44 4.94203 12.895 5.46603 13.345 6.03803C12.905 6.01803 12.455 6.00403 12 6.00403C11.54 6.00403 11.085 6.01403 10.64 6.03803C11.08 5.46603 11.535 4.94203 11.985 4.47303V4.47403ZM12 7.10003C12.74 7.10003 13.477 7.13403 14.202 7.19303C14.608 7.77503 15.004 8.39603 15.385 9.05303C15.757 9.69303 16.095 10.343 16.403 10.999C16.095 11.654 15.757 12.309 15.39 12.949C15.01 13.609 14.617 14.237 14.21 14.819C13.482 14.882 12.744 14.917 12 14.917C11.26 14.917 10.523 14.882 9.798 14.824C9.392 14.242 8.996 13.62 8.615 12.964C8.243 12.324 7.905 11.674 7.597 11.018C7.9 10.361 8.243 9.70503 8.61 9.06403C8.99 8.40403 9.383 7.77803 9.79 7.19603C10.518 7.13203 11.256 7.09803 12 7.09803V7.10003ZM8.365 7.35403C8.125 7.73103 7.885 8.11703 7.661 8.51403C7.436 8.90403 7.226 9.29603 7.026 9.68803C6.761 9.03203 6.536 8.37803 6.35 7.74103C6.99 7.59103 7.665 7.45803 8.365 7.35503V7.35403ZM15.625 7.35403C16.32 7.45703 16.99 7.58403 17.631 7.74103C17.451 8.37303 17.226 9.02303 16.971 9.67403C16.771 9.28403 16.561 8.89103 16.331 8.50003C16.106 8.10803 15.866 7.72603 15.626 7.35403H15.625ZM18.688 8.02903C19.172 8.17903 19.632 8.34603 20.063 8.52703C21.795 9.26703 22.915 10.235 22.915 11.003C22.91 11.771 21.79 12.743 20.058 13.478C19.638 13.658 19.178 13.82 18.703 13.971C18.423 13.013 18.057 12.015 17.603 10.991C18.053 9.97403 18.413 8.98103 18.688 8.02703V8.02903ZM5.293 8.03303C5.571 8.99303 5.938 9.99003 6.393 11.013C5.943 12.03 5.581 13.023 5.307 13.977C4.823 13.827 4.363 13.659 3.937 13.477C2.205 12.74 1.085 11.771 1.085 11.003C1.085 10.235 2.205 9.26103 3.937 8.52703C4.357 8.34703 4.817 8.18503 5.293 8.03303V8.03303ZM16.971 12.313C17.236 12.97 17.461 13.625 17.647 14.261C17.007 14.418 16.331 14.551 15.631 14.651C15.871 14.276 16.111 13.889 16.336 13.493C16.561 13.103 16.771 12.705 16.972 12.313H16.971ZM7.026 12.333C7.226 12.725 7.436 13.116 7.666 13.508C7.896 13.898 8.131 14.28 8.371 14.651C7.676 14.549 7.006 14.421 6.365 14.265C6.545 13.635 6.771 12.983 7.025 12.332L7.026 12.333ZM17.92 15.32C18.032 15.813 18.12 16.288 18.174 16.743C18.404 18.611 18.12 20.063 17.46 20.451C17.313 20.541 17.122 20.579 16.897 20.579C15.885 20.579 14.383 19.772 12.787 18.299C13.473 17.579 14.157 16.763 14.807 15.859C15.914 15.741 16.961 15.559 17.92 15.319V15.32ZM6.09 15.33C7.05 15.564 8.096 15.745 9.197 15.862C9.857 16.767 10.542 17.589 11.232 18.308C9.637 19.791 8.14 20.603 7.122 20.603C6.902 20.598 6.716 20.553 6.569 20.471C5.903 20.091 5.614 18.637 5.839 16.768C5.893 16.308 5.981 15.824 6.089 15.33H6.09ZM10.65 15.97C11.09 15.99 11.54 16.004 11.995 16.004C12.455 16.004 12.91 15.994 13.355 15.97C12.915 16.542 12.46 17.065 12.01 17.535C11.555 17.065 11.1 16.542 10.65 15.97Z" fill="black"/>
</svg>
