<svg height="512" viewBox="0 0 64 64" width="512" xmlns="http://www.w3.org/2000/svg"><g id="Coding-Programming-Monitor-Software-Computer"><path d="m60 48h-22v2a2.006 2.006 0 0 1 -2 2h-8a2.006 2.006 0 0 1 -2-2v-2h-22v3a3.009 3.009 0 0 0 3 3h50a3.009 3.009 0 0 0 3-3z"/><path d="m57 46v-35a1 1 0 0 0 -1-1h-48a1 1 0 0 0 -1 1v35h2v-33a1 1 0 0 1 1-1h44a1 1 0 0 1 1 1v33z"/><path d="m53 14h-42v32h42zm-18 8h2v2h-2zm-6.707-.293 1.414-1.414 3 3a1 1 0 0 1 0 1.414l-3 3-1.414-1.414 2.293-2.293zm6.707 12.293v2h-14v-2zm-10-2v-2h6v2zm.03-12.243 1.94.486-2 8-1.94-.486zm-2.03 12.243h-2v-2h2zm-5.707-7.293a1 1 0 0 1 0-1.414l3-3 1.414 1.414-2.293 2.293 2.293 2.293-1.414 1.414zm27.707 15.293h-24v-2h24zm-8-4v-2h4v2zm8 0h-2v-2h2zm0-4h-12v-2h12zm0-4h-10v-2h10zm0-4h-6v-2h6z"/><path d="m28 48h8v2h-8z"/></g></svg>