<svg width="111" height="123" viewBox="0 0 111 123" fill="none" xmlns="http://www.w3.org/2000/svg">
<g clip-path="url(#clip0)">
<path d="M107.39 94.71L57.59 122.88V100.94L88.59 83.87L107.39 94.7V94.71ZM110.8 91.62V32.71L92.58 43.24V81.11L110.8 91.62V91.62ZM3.41 94.71L53.21 122.88V100.94L22.21 83.87L3.41 94.71ZM0 91.62V32.71L18.22 43.24V81.11L0 91.62ZM2.14 28.89L53.21 0V21.2L20.48 39.2L20.22 39.34L2.14 28.89ZM108.66 28.89L57.59 0V21.2L90.32 39.2L90.58 39.35L108.66 28.9V28.89Z" fill="black"/>
<path d="M53.21 96L22.59 79.1V45.75L53.21 63.43V96ZM57.59 96L88.21 79.12V45.75L57.59 63.43V96ZM24.66 42L55.4 25L86.14 41.9L55.4 59.64L24.66 41.9V42Z" fill="black"/>
</g>
<defs>
<clipPath id="clip0">
<rect width="110.8" height="122.88" fill="white"/>
</clipPath>
</defs>
</svg>
